<svg width="218" height="150" viewBox="0 0 218 150" fill="none" xmlns="http://www.w3.org/2000/svg">
<path d="M127.312 92.6565C120.819 92.1331 64.6269 90.5142 48.9287 99.6011C33.2306 108.688 34.4721 119.367 46.0955 125.866C54.6997 130.676 64.0293 132.881 79.0117 134.413C100.696 136.63 126.759 135.09 135.086 133.592C149.167 131.06 150.704 125.845 150.704 122.036C150.704 118.226 159.704 115.405 162.101 108.688C164.5 101.971 159.79 98.3636 142.203 94.4804C140.952 94.2363 133.804 93.1807 127.312 92.6565Z" fill="url(#paint0_linear_4300_18695)"/>
<path d="M72.698 103.144L56.0655 107.691C55.7169 111.379 55.9945 114.516 56.8969 117.1C57.7658 119.589 59.6998 121.432 63.4897 122.068C63.5887 122.084 63.8703 122.032 64.3355 121.913C64.398 121.915 64.4604 121.906 64.5198 121.886C68.3161 120.454 70.9211 117.344 72.3342 112.555C73.7727 107.677 73.894 104.54 72.698 103.144Z" fill="url(#paint1_linear_4300_18695)"/>
<path d="M64.3487 13.7364C64.5003 13.7205 64.6726 13.6989 64.8657 13.6726C65.1553 13.6319 65.5367 13.6463 65.6891 13.6965C70.7205 15.3561 72.8117 19.6231 72.8117 24.2205V105.495C72.6553 109.975 72.1527 113.09 71.3045 114.841C69.8021 117.943 66.7782 120.507 63.5029 122.069C63.6936 122.091 63.9761 122.111 64.3487 122.13H64.8657C67.0495 122.13 69.8404 122.198 75.0825 120.856C90.8372 116.822 117.157 107.786 121.105 106.223C126.706 104.006 132.22 98.1912 132.22 92.0356C132.22 87.9322 132.491 62.0117 133.032 14.275C133.14 9.40876 132.16 5.68988 130.092 3.11674C126.99 -0.742571 122.437 -0.0300709 120.376 0.212482C119.002 0.37445 100.66 4.73881 65.35 13.3056C65.192 13.3534 65.0309 13.4117 64.8657 13.4795C64.6878 13.5535 64.5151 13.6393 64.3487 13.7364Z" fill="url(#paint2_linear_4300_18695)"/>
<path d="M60.6535 21.9178C60.5594 18.854 60.8849 16.8115 61.6293 15.7926C62.7471 14.2631 63.6065 14.0053 64.169 13.7979C64.7315 13.5905 65.3873 13.6256 65.6323 13.6575C66.2512 13.7487 66.8503 13.9437 67.4043 14.2343C68.0075 14.5543 68.8293 15.2037 69.324 15.6601C70.1653 16.4335 70.871 17.3424 71.412 18.349L60.6535 21.9178Z" fill="url(#paint3_linear_4300_18695)"/>
<path d="M84.0592 39.9784L122.215 30.4654C122.319 30.4395 122.427 30.4374 122.531 30.4596C122.636 30.4817 122.734 30.5273 122.818 30.593C122.902 30.6587 122.97 30.7427 123.017 30.8387C123.064 30.9347 123.088 31.04 123.088 31.1468V33.7806C123.088 33.9374 123.035 34.0897 122.939 34.2133C122.842 34.3369 122.707 34.4247 122.555 34.4628L84.3999 43.9758C84.2963 44.0017 84.188 44.0037 84.0835 43.9816C83.9789 43.9594 83.8808 43.9137 83.7966 43.848C83.7123 43.7822 83.6442 43.6981 83.5974 43.602C83.5505 43.506 83.5262 43.4005 83.5263 43.2936V40.6606C83.5263 40.3375 83.7465 40.0566 84.0592 39.9784ZM83.8494 30.0146L106.227 24.4351C106.325 24.4107 106.427 24.4077 106.526 24.4263C106.626 24.445 106.72 24.4849 106.802 24.5433C106.885 24.6017 106.954 24.6772 107.005 24.7647C107.055 24.8522 107.087 24.9496 107.096 25.0503L107.344 27.6218C107.359 27.7894 107.315 27.9572 107.218 28.0946C107.12 28.2321 106.977 28.3301 106.814 28.371L84.4366 33.9505C84.3385 33.9751 84.2362 33.9782 84.1368 33.9596C84.0374 33.941 83.9431 33.9011 83.8605 33.8427C83.7779 33.7843 83.7089 33.7087 83.6583 33.6211C83.6076 33.5336 83.5765 33.4361 83.567 33.3354L83.3196 30.7638C83.3035 30.5962 83.3482 30.4284 83.4454 30.2909C83.5426 30.1534 83.686 30.0553 83.8494 30.0146Z" fill="#DFDFE7"/>
<path d="M125.651 110.356L125.55 111.771L124.463 112.188L123.454 112.032L123.285 110.101L125.651 110.356Z" fill="#FFB8A3"/>
<path d="M123.282 111.564C123.24 111.547 123.194 111.544 123.151 111.555C122.43 111.784 121.832 112.101 121.441 112.218C120.797 112.41 120.214 112.635 119.807 112.734C119.4 112.833 118.673 112.914 118.301 113.111C117.929 113.309 117.839 113.606 117.808 113.797C117.789 113.914 117.701 114.11 117.706 114.403C117.709 114.515 117.749 114.637 117.839 114.652C119.491 114.923 121.264 114.875 122.257 114.846C123.238 114.817 124.716 114.806 126.004 114.778C126.137 114.775 126.238 114.632 126.237 114.481C126.232 113.601 126.224 113.13 126.147 112.777C126.074 112.44 126.038 112.035 125.809 111.606C125.771 111.533 125.71 111.452 125.639 111.489L125.055 111.801C124.703 111.988 124.186 111.911 123.968 111.865C123.823 111.834 123.594 111.734 123.282 111.564Z" fill="#491583"/>
<path d="M134.904 107.74L135.091 109.606L132.949 109.622L132.833 107.627L134.904 107.74Z" fill="#FFB8A3"/>
<path d="M132.901 108.948C132.865 108.928 132.823 108.92 132.781 108.925C132.084 109.058 131.693 109.066 131.227 109.14C130.761 109.214 130.648 109.147 130.363 109.177C130.126 109.194 129.894 109.251 129.676 109.346C129.385 109.46 129.124 109.732 129.072 109.905C129.021 110.077 129.001 110.199 128.97 110.469C128.959 110.572 129.1 110.743 129.185 110.763C130.648 111.106 131.016 111.126 131.808 111.261C132.599 111.395 133.966 111.612 135.167 111.725C135.29 111.737 135.4 111.616 135.418 111.477C135.518 110.668 135.447 110.703 135.418 110.371C135.39 110.053 135.404 109.677 135.244 109.259C135.217 109.187 135.17 109.106 135.1 109.133L134.52 109.356C134.17 109.49 133.699 109.364 133.502 109.298C133.371 109.255 133.171 109.138 132.901 108.948Z" fill="#491583"/>
<path d="M125.332 60.3601C125.585 59.2143 125.295 58.6423 124.46 58.6423C123.15 58.6423 122.683 56.9843 122.805 55.2569C123.053 51.743 124.311 50.5183 125.962 50.5183C127.613 50.5183 128.527 50.7114 128.844 52.6702C129.161 54.6282 129.254 55.7978 128.844 57.1407C128.435 58.4827 128.435 59.3045 128.844 59.6699C129.118 59.9133 127.946 60.1431 125.332 60.3601Z" fill="url(#paint4_linear_4300_18695)"/>
<path d="M128.735 57.5372C129.335 55.0463 131.2 54.1503 130.899 52.4364C130.698 51.2939 130.35 50.8726 129.855 51.1726C129.648 49.9311 128.655 49.3008 126.874 49.2817C126.477 49.2777 125.901 49.6096 125.502 49.5386C124.787 49.4109 124.557 49.3223 124.062 49.312C123.411 49.2992 123.011 49.5402 122.751 49.983C122.431 50.5263 122.681 51.3769 123.414 51.992C124.073 52.5457 124.808 52.367 125.298 52.5976C125.627 52.7516 126.082 53.5367 126.667 54.9521L126.801 54.546C127.129 53.7426 127.511 53.4617 127.949 53.7027C128.387 53.9444 128.466 54.3162 128.188 54.8205C127.861 55.8146 127.712 56.4625 127.742 56.7625C127.772 57.0625 128.103 57.321 128.735 57.5372Z" fill="#353564"/>
<path d="M118.121 69.5763C117.27 70.1205 116.564 69.5269 116.288 69.0545C116.104 68.7402 114.856 66.5308 112.543 62.4266L114.546 61.4324L118.432 67.9854C118.432 67.9854 118.971 69.033 118.121 69.5763Z" fill="#EFAB23"/>
<path d="M119.08 66.1982C118.847 66.1495 118.542 65.9405 118.165 65.5695C117.6 65.0141 117.303 64.3383 116.832 64.2586C116.362 64.1796 115.733 64.3152 115.461 64.4772C115.19 64.6391 115.121 65.1554 115.492 65.1554C115.863 65.1554 115.756 65.1514 116.292 65.0054C116.827 64.8593 116.889 65.4235 116.889 65.8559C116.889 66.2875 117.114 66.7734 117.303 66.9554C117.49 67.1365 117.561 67.2729 118.027 67.3184C118.242 67.3391 118.647 67.8921 118.798 67.8817C119.007 67.8681 118.836 68.1035 118.958 68.0429C119.092 67.9766 118.706 67.2474 119.08 66.3003C119.089 66.2668 119.089 66.2317 119.08 66.1982Z" fill="url(#paint5_linear_4300_18695)"/>
<path d="M114.994 65.4426C114.426 65.1681 114.401 65.5806 114.306 65.8878C114.238 66.1038 114.222 66.3325 114.258 66.556C114.294 66.7794 114.381 66.9914 114.512 67.1756C114.791 67.5737 115.398 68.133 115.779 68.1641C115.862 68.1713 115.788 68.0883 115.733 67.9862C115.577 67.6958 115.454 67.5857 115.596 67.1756C115.679 66.9354 115.741 66.8006 115.686 66.4511C115.639 66.1519 115.256 65.5695 114.994 65.4426Z" fill="#FFB8A3"/>
<path d="M109.465 62.0452C114.532 62.0452 118.64 58.0263 118.64 53.0691C118.64 48.112 114.532 44.0931 109.465 44.0931C104.397 44.0931 100.289 48.112 100.289 53.0691C100.289 58.0263 104.397 62.0452 109.465 62.0452Z" fill="url(#paint6_linear_4300_18695)"/>
<path d="M109.12 43.2952C114.658 43.2952 119.146 47.784 119.146 53.322C119.146 58.8593 114.658 63.3489 109.12 63.3489C103.582 63.3489 99.0928 58.8593 99.0928 53.322C99.0928 47.784 103.582 43.2952 109.12 43.2952ZM109.12 44.9874C104.517 44.9874 100.785 48.7191 100.785 53.322C100.785 57.925 104.517 61.6566 109.12 61.6566C113.723 61.6566 117.454 57.925 117.454 53.322C117.454 48.7191 113.723 44.9874 109.12 44.9874Z" fill="url(#paint7_linear_4300_18695)"/>
<path d="M119.774 66.0346C119.109 67.1152 118.454 68.2019 117.809 69.2947C117.143 70.4349 116.354 72.4168 115.774 72.4168C115.195 72.4168 111.846 71.1011 110.342 70.4748C109.34 70.0567 108.178 69.6633 106.856 69.2947C106.371 68.2367 105.945 67.5729 105.579 67.3032C105.029 66.8995 102.877 67.3032 102.877 67.3032C102.877 67.3032 102.202 68.1155 104.106 69.2947C106.01 70.4748 109.314 72.8253 111.092 74.2056C112.871 75.5859 115.54 76.9072 117.119 76.9072C118.699 76.9072 118.497 76.5761 119.181 75.7479C119.638 75.1958 121.152 72.8772 123.724 68.792L119.774 66.0346Z" fill="#FFB8A3"/>
<path d="M120.776 83.3819C120.156 88.2154 120.064 92.8487 120.497 97.2809C121.147 103.93 122.832 110.936 123.136 110.936C123.44 110.936 125.105 111.104 125.648 110.936C126.191 110.768 126.43 105.498 126.125 103.506C125.82 101.513 126.033 98.8048 126.125 97.6607C126.217 96.5165 128.385 90.3059 128.813 90.3059C129.24 90.3059 129.686 95.0006 129.686 96.4471C129.686 97.8928 131.131 101.024 131.501 102.57C131.869 104.116 132.537 107.598 132.537 108.114C132.537 108.459 133.395 108.53 135.11 108.328C135.213 105.02 135.213 102.872 135.11 101.882C134.955 100.399 134.272 97.395 134.064 96.278C133.857 95.1601 134.064 93.3889 134.512 90.6322C134.81 88.7947 135.204 86.1402 135.693 82.6686L120.776 83.3819Z" fill="url(#paint8_linear_4300_18695)"/>
<path opacity="0.303" d="M131.592 84.4247C131.38 85.1792 131.141 85.9258 130.874 86.6628C130.19 88.509 128.771 90.1854 128.771 90.3234C128.771 90.3234 128.815 90.2723 128.867 90.3234C128.919 90.3753 129.002 90.5348 129.056 90.7343C129.261 91.4947 129.495 93.6114 129.757 97.0838L134.755 88.8242C135.231 85.233 135.231 83.1489 134.755 82.5713C134.525 82.292 134.198 83.5574 133.823 83.429C132.278 82.9024 131.534 83.2343 131.592 84.4247Z" fill="url(#paint9_linear_4300_18695)"/>
<path d="M124.666 59.433C122.669 60.8739 121.196 62.338 120.25 63.8245C119.304 65.3109 118.609 66.4957 118.165 67.3782L122.564 70.446L121.728 71.9627C121.593 74.1624 121.433 76.3604 121.247 78.5564C120.971 81.8189 119.275 84.4965 119.885 84.8947C120.495 85.2936 124.973 85.237 129.117 84.8947C131.879 84.6665 134.225 83.9835 136.155 82.8457C136.254 81.2332 136.254 79.4332 136.155 77.4449C136.007 74.4617 135.786 72.6673 135.591 71.4713C135.35 69.9936 134.427 65.4944 134.281 65.0213C134.135 64.5481 133.361 62.2391 132.022 60.8101C131.13 59.8566 129.987 59.3979 128.592 59.433C127.529 59.6851 126.791 59.8112 126.378 59.8112C125.965 59.8112 125.395 59.6851 124.666 59.433Z" fill="url(#paint10_linear_4300_18695)"/>
<g opacity="0.745">
<path opacity="0.302" d="M0.145508 77.6237V141.268L23.066 149.716V83.6516L0.145508 77.6237Z" fill="url(#paint11_linear_4300_18695)"/>
<path opacity="0.302" d="M23.0293 83.559L44.283 75.7247V141.564L23.0293 149.62V83.559Z" fill="url(#paint12_linear_4300_18695)"/>
<path opacity="0.302" d="M0.000797434 77.5598L21.6479 69.5843L44.2779 75.775L23.0178 83.6117L0.000797434 77.5598Z" fill="url(#paint13_linear_4300_18695)"/>
</g>
<g opacity="0.465">
<path opacity="0.302" d="M151.957 50.5183V100.88L170.148 107.566V55.288L151.957 50.5183Z" fill="url(#paint14_linear_4300_18695)"/>
<path opacity="0.302" d="M170.119 55.2146L186.987 49.0159V101.115L170.119 107.49V55.2146Z" fill="url(#paint15_linear_4300_18695)"/>
<path opacity="0.302" d="M151.842 50.4681L169.022 44.1569L186.983 49.0559L170.109 55.2569L151.842 50.4681Z" fill="url(#paint16_linear_4300_18695)"/>
</g>
<path opacity="0.302" d="M191.358 73.2242C197.544 73.2242 202.846 76.4676 205.079 81.0793H206.227C212.297 81.0793 217.218 86.0006 217.218 92.0708V93.1631C217.218 99.2333 212.297 104.155 206.227 104.155H177.596C171.526 104.155 166.604 99.2333 166.604 93.1631V92.0708C166.604 86.0006 171.526 81.0793 177.596 81.0793H177.635C179.868 76.4676 185.172 73.2242 191.358 73.2242Z" fill="url(#paint17_linear_4300_18695)"/>
<path opacity="0.302" d="M33.8919 18.392C40.0778 18.392 45.3804 21.6354 47.6137 26.2471H48.761C54.8312 26.2471 59.7525 31.1692 59.7525 37.2394V38.3309C59.7525 44.4019 54.8312 49.3231 48.761 49.3231H20.1302C14.0599 49.3231 9.13867 44.4019 9.13867 38.3309V37.2394C9.13867 31.1692 14.0599 26.2479 20.1302 26.2479H20.1701C22.4033 21.6362 27.706 18.392 33.8919 18.392Z" fill="url(#paint18_linear_4300_18695)"/>
<defs>
<linearGradient id="paint0_linear_4300_18695" x1="99.9702" y1="109.614" x2="99.9702" y2="148.059" gradientUnits="userSpaceOnUse">
<stop stop-color="#FCFCFE"/>
<stop offset="1" stop-color="#EBEBF0"/>
</linearGradient>
<linearGradient id="paint1_linear_4300_18695" x1="64.7161" y1="103.144" x2="64.7161" y2="122.071" gradientUnits="userSpaceOnUse">
<stop stop-color="#EEEEF8"/>
<stop offset="1" stop-color="#BDBDC8"/>
</linearGradient>
<linearGradient id="paint2_linear_4300_18695" x1="104.792" y1="105.309" x2="75.1622" y2="5.7952" gradientUnits="userSpaceOnUse">
<stop stop-color="#D8D8E4"/>
<stop offset="0.232" stop-color="#E2E2EA"/>
<stop offset="0.925" stop-color="#F2F2F9"/>
<stop offset="1" stop-color="#E6E6EB"/>
</linearGradient>
<linearGradient id="paint3_linear_4300_18695" x1="64.0341" y1="15.4176" x2="66.561" y2="20.8208" gradientUnits="userSpaceOnUse">
<stop stop-color="#CED0D6"/>
<stop offset="1" stop-color="#F6F8FC"/>
</linearGradient>
<linearGradient id="paint4_linear_4300_18695" x1="125.1" y1="54.4183" x2="126.97" y2="58.7667" gradientUnits="userSpaceOnUse">
<stop stop-color="#FFD2C4"/>
<stop offset="1" stop-color="#FFB8A3"/>
</linearGradient>
<linearGradient id="paint5_linear_4300_18695" x1="115.48" y1="64.4796" x2="119.176" y2="67.5482" gradientUnits="userSpaceOnUse">
<stop stop-color="#FFB8A3"/>
<stop offset="1" stop-color="#EDA48E"/>
</linearGradient>
<linearGradient id="paint6_linear_4300_18695" x1="109.465" y1="44.0931" x2="109.465" y2="62.0452" gradientUnits="userSpaceOnUse">
<stop stop-color="#FCFCFF"/>
<stop offset="1" stop-color="#FAFAFC"/>
</linearGradient>
<linearGradient id="paint7_linear_4300_18695" x1="114.394" y1="60.83" x2="102.789" y2="46.9438" gradientUnits="userSpaceOnUse">
<stop stop-color="#FAC251"/>
<stop offset="1" stop-color="#FFDE9B"/>
</linearGradient>
<linearGradient id="paint8_linear_4300_18695" x1="125.506" y1="109.659" x2="133.219" y2="85.4411" gradientUnits="userSpaceOnUse">
<stop stop-color="#7111BF"/>
<stop offset="1" stop-color="#491583"/>
</linearGradient>
<linearGradient id="paint9_linear_4300_18695" x1="132.339" y1="89.788" x2="131.37" y2="89.4665" gradientUnits="userSpaceOnUse">
<stop stop-color="#5360B8" stop-opacity="0"/>
<stop offset="1" stop-color="#223196" stop-opacity="0.569"/>
</linearGradient>
<linearGradient id="paint10_linear_4300_18695" x1="127.197" y1="65.6008" x2="127.197" y2="85.173" gradientUnits="userSpaceOnUse">
<stop stop-color="#C163FB"/>
<stop offset="1" stop-color="#D38BFF"/>
</linearGradient>
<linearGradient id="paint11_linear_4300_18695" x1="4.42051" y1="85.6024" x2="4.42051" y2="147.694" gradientUnits="userSpaceOnUse">
<stop stop-color="#EEEEEE"/>
<stop offset="1" stop-color="#DEDEE6" stop-opacity="0"/>
</linearGradient>
<linearGradient id="paint12_linear_4300_18695" x1="33.6562" y1="75.7247" x2="33.6562" y2="149.62" gradientUnits="userSpaceOnUse">
<stop stop-color="#DCDCE4"/>
<stop offset="1" stop-color="#DEDEE6" stop-opacity="0"/>
</linearGradient>
<linearGradient id="paint13_linear_4300_18695" x1="22.1394" y1="69.5843" x2="22.1394" y2="83.6117" gradientUnits="userSpaceOnUse">
<stop stop-color="#DCDCE4"/>
<stop offset="1" stop-color="#DEDEE6" stop-opacity="0"/>
</linearGradient>
<linearGradient id="paint14_linear_4300_18695" x1="155.35" y1="56.8319" x2="155.35" y2="105.965" gradientUnits="userSpaceOnUse">
<stop stop-color="#EEEEEE"/>
<stop offset="1" stop-color="#DEDEE6" stop-opacity="0"/>
</linearGradient>
<linearGradient id="paint15_linear_4300_18695" x1="178.553" y1="49.0159" x2="178.553" y2="107.49" gradientUnits="userSpaceOnUse">
<stop stop-color="#DCDCE4"/>
<stop offset="1" stop-color="#DEDEE6" stop-opacity="0"/>
</linearGradient>
<linearGradient id="paint16_linear_4300_18695" x1="169.413" y1="44.1569" x2="169.413" y2="55.2569" gradientUnits="userSpaceOnUse">
<stop stop-color="#DCDCE4"/>
<stop offset="1" stop-color="#DEDEE6" stop-opacity="0"/>
</linearGradient>
<linearGradient id="paint17_linear_4300_18695" x1="191.911" y1="73.2242" x2="191.911" y2="104.155" gradientUnits="userSpaceOnUse">
<stop stop-color="#DCDCE4"/>
<stop offset="1" stop-color="#DEDEE6" stop-opacity="0"/>
</linearGradient>
<linearGradient id="paint18_linear_4300_18695" x1="34.4456" y1="18.392" x2="34.4456" y2="49.3231" gradientUnits="userSpaceOnUse">
<stop stop-color="#DCDCE4"/>
<stop offset="1" stop-color="#DEDEE6" stop-opacity="0"/>
</linearGradient>
</defs>
</svg>
