<svg width="182" height="150" viewBox="0 0 182 150" fill="none" xmlns="http://www.w3.org/2000/svg">
<path opacity="0.302" d="M23.0654 26.8582C28.8296 26.8582 33.7707 29.8804 35.8517 34.1776H36.92C42.5771 34.1776 47.1628 38.7633 47.1628 44.4204V45.4375C47.1628 51.0946 42.5771 55.6795 36.92 55.6795H10.2421C4.58498 55.6795 0 51.0946 0 45.4375V44.4204C0 38.7633 4.58498 34.1776 10.2421 34.1776H10.2792C12.3595 29.8804 17.3006 26.8582 23.0654 26.8582Z" fill="url(#paint0_linear_2329_5099)"/>
<path fill-rule="evenodd" clip-rule="evenodd" d="M42.9627 15.9144L97.1253 0.324542C97.8608 0.112887 98.6482 0.17674 99.3399 0.504133C100.032 0.831526 100.58 1.39998 100.883 2.10293L117.63 40.9991C117.806 41.407 117.893 41.8476 117.886 42.2917C117.879 42.7359 117.778 43.1735 117.59 43.5758C117.402 43.978 117.13 44.3359 116.794 44.6256C116.457 44.9154 116.063 45.1306 115.637 45.2569L58.3898 62.243C57.6103 62.474 56.7717 62.3943 56.0498 62.0204C55.328 61.6466 54.7789 61.0078 54.5178 60.2379L40.855 19.9455C40.7185 19.5428 40.665 19.1166 40.6979 18.6926C40.7308 18.2686 40.8493 17.8558 41.0464 17.4789C41.2434 17.1021 41.5148 16.7692 41.8442 16.5003C42.1736 16.2313 42.5541 16.032 42.9627 15.9144Z" fill="url(#paint1_linear_2329_5099)"/>
<path fill-rule="evenodd" clip-rule="evenodd" d="M42.1664 49.4879L63.5903 44.4799C64.3518 44.3019 65.0666 43.9636 65.6871 43.4876C66.3076 43.0116 66.8195 42.4088 67.1887 41.7194L69.4154 37.5589C69.7641 36.9077 70.2404 36.3334 70.8158 35.8701C71.3913 35.4068 72.0541 35.0641 72.7647 34.8624L96.5855 28.1027C97.712 27.7832 98.7072 27.1127 99.4263 26.1886C100.145 25.2645 100.551 24.1351 100.584 22.9646L101.14 3.23288C101.154 2.7432 101.053 2.25708 100.845 1.81329C100.638 1.3695 100.33 0.980293 99.9453 0.676708C99.5609 0.373123 99.1108 0.16355 98.631 0.0646967C98.1512 -0.0341571 97.6549 -0.0195582 97.1818 0.107329L39.0104 15.7262C38.3117 15.9139 37.699 16.3369 37.2758 16.9237C36.8526 17.5105 36.6446 18.2253 36.687 18.9476L38.3123 46.6107C38.3391 47.068 38.4656 47.514 38.6829 47.9173C38.9002 48.3207 39.203 48.6717 39.5701 48.9458C39.9372 49.2198 40.3598 49.4104 40.8083 49.504C41.2568 49.5977 41.7203 49.5922 42.1664 49.4879Z" fill="url(#paint2_linear_2329_5099)"/>
<path fill-rule="evenodd" clip-rule="evenodd" d="M92.0428 32.5442L94.8264 35.3233L92.0428 38.1024L89.2593 35.3233L92.0428 32.5442ZM92.0428 46.514L94.8264 49.2931L92.0428 52.0722L89.2593 49.2931L92.0428 46.514ZM64.5151 48.2931L67.2986 51.0722L64.5151 53.8513L61.7315 51.0722L64.5151 48.2931ZM57.1473 66.1647L59.9264 68.9401L57.1473 71.7147L54.3682 68.9401L57.1473 66.1647ZM79.4737 42.8866L80.5874 43.9981L79.4737 45.1096L78.3607 43.9981L79.4737 42.8866Z" fill="#ECECF2"/>
<path d="M131.411 110.31C131.411 114.068 116.405 113.148 112.101 114.079C104.881 115.639 120.433 122.68 94.2172 123.467C72.2877 124.126 48.6721 121.053 49.2684 113.126C49.8646 105.198 67.3065 100.877 89.395 100.877C111.484 100.877 131.411 102.417 131.411 110.31Z" fill="url(#paint3_linear_2329_5099)"/>
<path fill-rule="evenodd" clip-rule="evenodd" d="M87.7526 62.1404C84.0167 58.2245 81.6004 56.0194 80.5038 55.5257C80.0495 55.2997 79.0622 52.7251 77.5411 47.8025C77.5113 46.1855 77.092 45.2331 76.2839 44.9446C75.7634 44.7774 74.8519 44.7729 74.7196 45.5855C74.6311 46.1268 74.9924 46.9334 75.8036 48.004C75.7077 52.7243 76.7009 56.3458 78.7834 58.8691C80.8666 61.3924 83.2123 63.8251 85.8204 66.1655L87.7526 62.5612V62.1404Z" fill="url(#paint4_linear_2329_5099)"/>
<path fill-rule="evenodd" clip-rule="evenodd" d="M103.747 68.9839C104.504 69.1445 106.861 72.3206 107.702 73.4983C107.691 73.7726 112.813 68.3037 113.39 67.8948C114.961 66.7788 116.509 67.3498 116.39 68.7074C116.271 70.0649 113.891 69.43 113.745 69.6449C111.202 73.3994 111.167 73.8001 109.446 76.2811C108.024 78.4468 104.592 75.0871 100.77 71.8032C96.9486 68.5193 102.989 68.8241 103.747 68.9839Z" fill="url(#paint5_linear_2329_5099)"/>
<path fill-rule="evenodd" clip-rule="evenodd" d="M86.5526 110.227C84.9527 111.39 83.8345 111.972 83.1988 111.972C82.2457 111.972 81.7304 112.974 82.6174 113.516C83.5036 114.057 86.3429 113.276 87.0708 113.276C87.7979 113.276 89.67 113.586 88.9525 111.135C88.4745 109.501 88.0351 108.806 87.6351 109.049L86.5526 109.393V110.227ZM99.8511 110.227C101.451 111.39 102.569 111.972 103.205 111.972C104.158 111.972 104.673 112.974 103.787 113.516C102.9 114.057 100.061 113.276 99.3329 113.276C98.6058 113.276 96.7337 113.586 97.4511 111.135C97.9292 109.501 98.3686 108.806 98.7686 109.049L99.8511 109.393V110.227Z" fill="#491583"/>
<path fill-rule="evenodd" clip-rule="evenodd" d="M86.5093 81.4014C85.5777 88.2673 85.3049 95.2768 85.6915 102.428C86.2342 110.144 85.6662 109.974 86.5093 109.974C86.8275 109.974 88.1249 110.147 88.4104 109.638C89.0944 108.423 90.1992 98.2269 89.7731 96.1771C89.7308 95.8686 94.0251 86.3008 94.0251 82.5798C93.8652 81.8534 91.3605 81.4608 86.5093 81.4014Z" fill="url(#paint6_linear_2329_5099)"/>
<path fill-rule="evenodd" clip-rule="evenodd" d="M99.7628 81.4014C100.694 88.2673 100.967 95.2768 100.58 102.428C100.038 110.144 100.606 109.974 99.7628 109.974C99.4439 109.974 98.1473 110.147 97.861 109.638C97.1778 108.423 96.073 98.2269 96.499 96.1771C96.5414 95.8686 92.2471 86.3008 92.2471 82.5798C92.4069 81.8534 94.9117 81.4608 99.7628 81.4014Z" fill="url(#paint7_linear_2329_5099)"/>
<path fill-rule="evenodd" clip-rule="evenodd" d="M90.5705 54.8884C89.9824 57.8288 90.259 59.5581 91.4002 60.0756C92.8946 60.6994 91.8389 61.9848 91.537 62.1432C91.3355 62.2488 91.3846 62.6056 91.685 63.2153C92.6299 63.7149 93.3243 63.9141 93.7682 63.8123C94.212 63.7104 94.7533 63.2101 95.3919 62.3112C94.2016 61.4547 93.7875 60.7678 94.1496 60.2503C94.5109 59.7329 95.0603 59.1931 95.7971 58.631C96.5123 58.0823 96.4848 57.6653 95.7146 57.379C95.9004 56.8608 95.9696 56.269 95.9213 55.6044L93.4128 54.8884L90.8604 54.3315L90.5705 54.8884Z" fill="url(#paint8_linear_2329_5099)"/>
<path fill-rule="evenodd" clip-rule="evenodd" d="M92.2482 55.557C94.6927 54.8603 95.3418 55.9309 95.3418 56.3837C95.3418 56.6856 95.2645 57.1867 95.1106 57.8855C95.4109 57.7517 95.6228 57.6498 95.7455 57.5807C96.4949 57.1562 96.9915 56.403 97.1685 55.8164C97.4986 54.7213 96.5276 52.3965 94.0102 52.7429C93.1329 52.5771 92.9939 51.2835 91.469 52.079C89.9434 52.8745 89.4297 52.2634 89.4297 53.079C89.4297 53.8953 89.4929 56.4097 92.2482 55.557Z" fill="#353564"/>
<path fill-rule="evenodd" clip-rule="evenodd" d="M91.7727 61.9025C92.8113 63.0638 93.8589 63.0638 94.9146 61.9025C95.9094 62.0572 101.084 62.6742 103.591 66.5403C104.96 68.5573 105.649 69.8651 105.659 70.4628C103.724 73.2925 102.756 74.6397 102.756 74.5058C102.756 74.372 101.704 73.401 99.5992 71.5929C101.447 77.1608 101.933 80.4283 101.059 81.3948C99.7479 82.8439 88.7156 83.0595 86.0718 82.0149C85.3067 81.6171 85.6643 70.4041 86.929 66.8979C86.9691 66.7128 85.0316 68.2153 79.5738 61.6639C79.4006 61.4237 80.8058 59.8401 83.7908 56.9138C85.0725 58.3495 86.1186 59.3167 86.929 59.8148C87.7401 60.3122 89.3542 61.0089 91.7727 61.9025Z" fill="url(#paint9_linear_2329_5099)"/>
<path opacity="0.302" d="M5.37598 82.8223V142.127L26.7329 150V88.4392L5.37598 82.8223Z" fill="url(#paint10_linear_2329_5099)"/>
<path opacity="0.302" d="M26.6987 88.3529L46.5033 81.0535V142.403L26.6987 149.911V88.3529Z" fill="url(#paint11_linear_2329_5099)"/>
<path opacity="0.302" d="M5.24023 82.7628L25.4121 75.3311L46.4999 81.0996L26.6886 88.402L5.24023 82.7628Z" fill="url(#paint12_linear_2329_5099)"/>
<path opacity="0.302" d="M120.635 42.6116V89.5394L137.584 95.769V47.056L120.635 42.6116Z" fill="url(#paint13_linear_2329_5099)"/>
<path opacity="0.302" d="M137.558 46.9877L153.276 41.2117V89.7588L137.558 95.6984V46.9877Z" fill="url(#paint14_linear_2329_5099)"/>
<path opacity="0.302" d="M120.527 42.5647L136.537 36.6838L153.273 41.2487L137.55 47.027L120.527 42.5647Z" fill="url(#paint15_linear_2329_5099)"/>
<path opacity="0.302" d="M157.349 81.8818C163.113 81.8818 168.054 84.904 170.135 89.2013H171.204C176.861 89.2013 181.446 93.787 181.446 99.4434V100.461C181.446 106.117 176.861 110.703 171.204 110.703H144.526C138.869 110.703 134.284 106.117 134.284 100.461V99.4434C134.284 93.787 138.869 89.2013 144.526 89.2013H144.562C146.643 84.904 151.584 81.8818 157.349 81.8818Z" fill="url(#paint16_linear_2329_5099)"/>
<defs>
<linearGradient id="paint0_linear_2329_5099" x1="23.5814" y1="26.8582" x2="23.5814" y2="55.6795" gradientUnits="userSpaceOnUse">
<stop stop-color="#DCDCE4"/>
<stop offset="1" stop-color="#DEDEE6" stop-opacity="0"/>
</linearGradient>
<linearGradient id="paint1_linear_2329_5099" x1="106.697" y1="31.2871" x2="64.6721" y2="54.1652" gradientUnits="userSpaceOnUse">
<stop stop-color="#E2E2EA"/>
<stop offset="1" stop-color="#D9D9E8"/>
</linearGradient>
<linearGradient id="paint2_linear_2329_5099" x1="80.5251" y1="14.6504" x2="51.7869" y2="51.7198" gradientUnits="userSpaceOnUse">
<stop stop-color="#F4F4F9"/>
<stop offset="1" stop-color="#E3E3EA"/>
</linearGradient>
<linearGradient id="paint3_linear_2329_5099" x1="90.334" y1="109.992" x2="90.334" y2="129.769" gradientUnits="userSpaceOnUse">
<stop stop-color="#FCFCFE"/>
<stop offset="1" stop-color="#EBEBF0"/>
</linearGradient>
<linearGradient id="paint4_linear_2329_5099" x1="78.721" y1="47.6754" x2="87.314" y2="61.043" gradientUnits="userSpaceOnUse">
<stop stop-color="#FFD2C4"/>
<stop offset="1" stop-color="#FFB8A3"/>
</linearGradient>
<linearGradient id="paint5_linear_2329_5099" x1="114.094" y1="72.6611" x2="103.218" y2="72.5348" gradientUnits="userSpaceOnUse">
<stop stop-color="#FFD2C4"/>
<stop offset="1" stop-color="#FFB8A3"/>
</linearGradient>
<linearGradient id="paint6_linear_2329_5099" x1="88.4233" y1="108.639" x2="100.15" y2="88.5738" gradientUnits="userSpaceOnUse">
<stop stop-color="#7111BF"/>
<stop offset="1" stop-color="#491583"/>
</linearGradient>
<linearGradient id="paint7_linear_2329_5099" x1="95.1488" y1="108.639" x2="106.876" y2="88.5741" gradientUnits="userSpaceOnUse">
<stop stop-color="#7111BF"/>
<stop offset="1" stop-color="#491583"/>
</linearGradient>
<linearGradient id="paint8_linear_2329_5099" x1="92.0716" y1="56.1025" x2="94.6313" y2="60.4659" gradientUnits="userSpaceOnUse">
<stop stop-color="#FFD2C4"/>
<stop offset="1" stop-color="#FFB8A3"/>
</linearGradient>
<linearGradient id="paint9_linear_2329_5099" x1="92.6094" y1="63.086" x2="92.6094" y2="82.6662" gradientUnits="userSpaceOnUse">
<stop stop-color="#C163FB"/>
<stop offset="1" stop-color="#D38BFF"/>
</linearGradient>
<linearGradient id="paint10_linear_2329_5099" x1="9.35875" y1="90.257" x2="9.35875" y2="148.115" gradientUnits="userSpaceOnUse">
<stop stop-color="#EEEEEE"/>
<stop offset="1" stop-color="#DEDEE6" stop-opacity="0"/>
</linearGradient>
<linearGradient id="paint11_linear_2329_5099" x1="36.601" y1="81.0535" x2="36.601" y2="149.911" gradientUnits="userSpaceOnUse">
<stop stop-color="#DCDCE4"/>
<stop offset="1" stop-color="#DEDEE6" stop-opacity="0"/>
</linearGradient>
<linearGradient id="paint12_linear_2329_5099" x1="25.8701" y1="75.3311" x2="25.8701" y2="88.402" gradientUnits="userSpaceOnUse">
<stop stop-color="#DCDCE4"/>
<stop offset="1" stop-color="#DEDEE6" stop-opacity="0"/>
</linearGradient>
<linearGradient id="paint13_linear_2329_5099" x1="123.796" y1="48.4947" x2="123.796" y2="94.2776" gradientUnits="userSpaceOnUse">
<stop stop-color="#EEEEEE"/>
<stop offset="1" stop-color="#DEDEE6" stop-opacity="0"/>
</linearGradient>
<linearGradient id="paint14_linear_2329_5099" x1="145.417" y1="41.2117" x2="145.417" y2="95.6984" gradientUnits="userSpaceOnUse">
<stop stop-color="#DCDCE4"/>
<stop offset="1" stop-color="#DEDEE6" stop-opacity="0"/>
</linearGradient>
<linearGradient id="paint15_linear_2329_5099" x1="136.9" y1="36.6838" x2="136.9" y2="47.027" gradientUnits="userSpaceOnUse">
<stop stop-color="#DCDCE4"/>
<stop offset="1" stop-color="#DEDEE6" stop-opacity="0"/>
</linearGradient>
<linearGradient id="paint16_linear_2329_5099" x1="157.865" y1="81.8818" x2="157.865" y2="110.703" gradientUnits="userSpaceOnUse">
<stop stop-color="#DCDCE4"/>
<stop offset="1" stop-color="#DEDEE6" stop-opacity="0"/>
</linearGradient>
</defs>
</svg>
