<svg width="130" height="41" viewBox="0 0 130 41" fill="none" xmlns="http://www.w3.org/2000/svg">
<path d="M68.8827 17.7555C70.8124 17.4261 76.0647 17.9381 75.7998 20.6949C75.7533 21.1926 73.759 23.3121 73.4046 23.373C72.7601 23.4876 71.8794 21.6902 70.5618 21.6115C66.287 21.3537 64.0851 31.5575 69.8816 31.3105C71.661 31.2353 73.1754 28.8007 74.16 31.6542C75.2341 34.7583 69.2013 35.4923 67.0388 35.1808C58.9581 34.0208 61.2674 19.048 68.8827 17.7519V17.7555Z" fill="white"/>
<path d="M100.84 18.0316L99.7698 26.6208C100.615 26.1947 102.258 23.2947 102.867 23.0977C103.25 22.9724 106.769 22.8292 106.927 23.044C106.884 24.5836 103.024 27.5194 102.999 28.5792C102.974 29.6389 106.562 34.168 105.856 34.8554C104.829 34.6872 102.731 35.1884 101.914 34.6836C101.467 34.4079 100.285 31.694 99.8593 31.0209C98.6814 29.1699 99.1754 32.8326 99.0716 33.6202C98.7637 35.9438 95.3338 35.6968 95.1011 34.3076L96.9557 18.6152C97.2922 17.5554 99.9273 18.1856 100.844 18.0316H100.84Z" fill="white"/>
<path d="M45.5248 34.8555C45.2921 34.7875 44.952 34.3077 45.0057 33.9962L47.2183 18.2895C47.7338 16.8323 51.6578 16.6855 51.4609 18.5616L49.9966 30.9172C51.1172 31.1284 54.25 30.5484 55.0305 31.0747C55.811 31.601 54.8801 34.8555 54.4755 34.8555C52.6245 34.8555 46.7851 35.2278 45.5248 34.8555Z" fill="white"/>
<path d="M90.7191 22.765C91.9901 22.4964 94.9976 22.7113 95.1336 24.3116C95.1766 24.8308 93.9951 26.6245 93.6836 26.8214C93.0141 27.2475 92.4735 26.1412 91.5247 26.4025C88.9576 27.1079 88.7858 31.662 91.36 31.6083C92.273 31.5904 93.8196 29.9148 94.3459 32.6143C94.9653 35.7829 88.3167 36.4524 86.4442 32.6036C84.7866 29.1916 86.8237 23.5848 90.7191 22.765Z" fill="white"/>
<path d="M78.9149 34.7696C78.2132 35.4642 76.3228 35.2673 75.4707 34.8019C75.6175 29.2882 76.5878 23.7602 77.2788 18.2752C77.5759 17.2906 80.9163 17.4195 81.1061 18.2358C80.3077 20.4019 79.7313 33.9605 78.9149 34.7696Z" fill="white"/>
<path d="M60.745 23.0366C60.7056 24.0427 60.813 25.0702 60.7378 26.0763C60.6233 27.6337 60.0182 33.0328 59.585 34.2322C59.0587 35.6822 55.8006 35.6572 55.7183 34.3181C56.642 32.2809 56.4164 24.6836 57.3258 23.3803C57.7984 22.7037 59.8929 23.1548 60.745 23.0366Z" fill="white"/>
<path d="M85.4454 23.0402L84.3211 34.8087C81.7935 35.5641 80.6334 35.8577 80.7695 32.8753C80.9055 29.8929 81.8543 26.6635 81.9152 23.631C82.241 22.5963 84.5252 23.1727 85.4454 23.0402Z" fill="white"/>
<path d="M58.8582 17.3765C62.5889 16.6175 62.3526 21.6765 59.4525 21.9629C55.9439 22.3102 56.5346 17.8491 58.8582 17.3765Z" fill="white"/>
<path d="M83.9129 17.7342C86.9061 16.8534 87.0528 21.8157 84.16 21.9733C81.643 22.1129 81.8471 18.3393 83.9129 17.7342Z" fill="white"/>
<path d="M108.624 31.6865C111.22 31.1817 111.116 35.2811 108.842 35.4924C106.852 35.6786 106.111 32.1734 108.624 31.6865Z" fill="white"/>
<path d="M119.096 19.4598C119.229 18.0922 117.252 14.6622 119.938 14.8878C121.939 15.0561 121.359 18.6543 122.505 19.8143C123.453 19.9539 122.898 19.2772 122.809 18.7939C122.551 17.4012 121.57 15.5287 123.912 15.8724C125.935 16.1695 125.308 20.2654 125.902 20.8919C127.13 22.188 126.289 18.3285 126.282 18.1566C126.149 15.5466 128.863 18.0922 129.121 20.7093C129.812 27.673 124.288 34.4183 117.023 31.7366C113.951 30.6017 113.361 28.0597 111.402 25.9008C110.307 24.6906 106.451 22.589 108.087 20.9779C109.415 19.6711 111.638 21.2464 113.01 21.6044C113.396 21.2321 110.819 12.7432 110.89 11.0712C110.98 8.96956 112.952 7.85609 114.904 8.43252C117.059 9.07339 117.202 16.259 117.9 18.3249C118.104 18.9228 118.287 19.5923 119.093 19.4562L119.096 19.4598Z" fill="url(#paint0_linear_774_9996)" fill-opacity="0.64"/>
<path d="M119.096 19.4598C119.229 18.0922 117.252 14.6622 119.938 14.8878C121.939 15.0561 121.359 18.6543 122.505 19.8143C123.453 19.9539 122.898 19.2772 122.809 18.7939C122.551 17.4012 121.57 15.5287 123.912 15.8724C125.935 16.1695 125.308 20.2654 125.902 20.8919C127.13 22.188 126.289 18.3285 126.282 18.1566C126.149 15.5466 128.863 18.0922 129.121 20.7093C129.812 27.673 124.288 34.4183 117.023 31.7366C113.951 30.6017 113.361 28.0597 111.402 25.9008C110.307 24.6906 106.451 22.589 108.087 20.9779C109.415 19.6711 111.638 21.2464 113.01 21.6044C113.396 21.2321 110.819 12.7432 110.89 11.0712C110.98 8.96956 112.952 7.85609 114.904 8.43252C117.059 9.07339 117.202 16.259 117.9 18.3249C118.104 18.9228 118.287 19.5923 119.093 19.4562L119.096 19.4598Z" fill="url(#paint1_linear_774_9996)"/>
<path d="M111.087 0.505737C112.326 0.287339 113.873 6.05877 112.075 6.54927C110.951 6.74261 110.221 2.46058 110.239 1.65859C110.249 1.21106 110.718 0.573764 111.091 0.509318L111.087 0.505737Z" fill="white"/>
<path d="M116.598 6.57078C116.129 6.10534 117.682 2.13838 118.105 1.45812C118.452 0.896014 118.527 0.724158 119.279 0.849468C120.933 1.37219 118.073 8.03512 116.601 6.57436L116.598 6.57078Z" fill="white"/>
<path d="M109.064 8.70819C108.194 9.9434 104.159 5.95495 104.421 4.96679C104.933 3.03701 109.97 7.41929 109.064 8.70819Z" fill="white"/>
<circle cx="20" cy="20.5" r="20" fill="white"/>
<path fill-rule="evenodd" clip-rule="evenodd" d="M9.83717 16.7393C9.19697 16.7466 8.24251 16.7059 7.91925 16.4207C7.85033 16.3598 7.79811 16.3004 7.75479 16.2468C7.62707 16.0887 7.67539 15.9691 7.51956 16.3077C7.3437 16.6896 7.01989 17.1363 6.43821 17.3078C5.89893 17.4667 7.14167 17.2585 7.53264 17.8498C7.63727 18.0081 7.66222 18.0388 7.71853 18.1813C7.82186 18.4433 7.90942 18.5427 7.95598 18.2529C7.99522 18.0084 8.07146 17.7557 8.21718 17.6035C8.49508 17.313 9.19836 16.9884 9.89329 16.8177C10.0828 16.7712 10.1926 16.7352 9.83717 16.7393Z" fill="#D30000"/>
<path fill-rule="evenodd" clip-rule="evenodd" d="M4.86783 20.9263C4.91895 20.6705 5.26807 20.3992 5.08117 20.165C4.75599 19.7575 3.54177 19.8617 4.65228 18.7651C5.30865 18.1147 6.80719 15.7824 6.67427 15.1668C6.64543 15.0314 6.60689 15.0036 6.54237 14.9261C6.28115 14.6099 5.51654 13.6732 7.16029 11.8209C7.16029 11.8209 8.60023 9.83272 11.8242 8.93307C14.1305 8.28948 17.8828 7.54587 18.1733 6.04857C18.5622 4.04274 16.1622 4.0958 16.1622 4.0958C16.1622 4.0958 18.028 3.97036 18.6996 5.04575C19.6459 6.56135 18.8459 8.14758 16.1273 9.46341C14.3894 10.3046 13.8903 11.2575 17.0526 9.96427C19.1307 9.11453 21.5638 7.58821 25.2007 7.5724C27.9845 7.56029 30.0449 8.29604 31.844 9.13432C30.4321 8.75585 28.8588 8.48527 26.2316 8.88583C24.8426 9.09762 24.0169 9.44243 23.3021 9.87552C22.7179 10.2293 21.7914 10.8526 22.5196 11.8745C23.0823 12.6641 23.8386 13.1566 24.4679 13.5371C30.4453 17.1504 35.7864 15.3789 36.9372 13.8987C36.4452 15.5499 34.4004 17.6915 29.594 17.6288C29.5932 17.6287 29.5929 17.6298 29.5938 17.63C31.4303 18.0726 33.5777 19.58 32.4754 22.2152C32.6461 20.5138 30.9699 19.9339 29.9559 20.8198C28.8281 21.805 29.1788 23.9919 31.7217 24.4474C34.0642 24.867 35.1323 22.8551 35.0084 21.4929L35.0086 21.4928C35.5498 23.0729 34.63 25.8645 31.6026 27.0294C28.2302 28.3271 25.3326 27.4922 21.2136 25.6645C18.9113 24.643 17.4201 24.3342 16.2815 24.3668C15.4205 24.3915 15.5511 24.706 15.9993 25.033L16.6342 25.4964C18.5748 26.9127 20.8699 29.8512 22.8231 32.9691C24.77 36.077 27.0867 37.8129 28.0176 38.5603C28.151 38.6675 28.3339 38.6907 28.4887 38.6179C35.2902 35.4247 40 28.5134 40 20.5019C40 8.0494 28.6215 -1.74539 15.6955 0.949231C7.99728 2.55404 1.95579 8.65971 0.41362 16.3714C-1.48146 25.8479 3.32539 34.4651 10.9479 38.3412C11.2128 38.4759 11.534 38.3356 11.608 38.0477C11.9348 36.7786 12.493 34.5045 12.8717 32.394C13.5923 28.5386 12.2706 26.3399 10.6207 25.3509C8.92976 24.3378 6.70977 24.1567 6.09101 24.0329C5.11482 23.8386 4.95713 23.3845 4.99465 22.8324C5.02451 22.3937 5.04669 22.4859 5.07563 22.1775C5.09347 21.9878 4.99188 21.8296 4.97607 21.6235C4.96424 21.4684 5.05233 21.3607 4.92764 21.2306C4.85637 21.1561 4.84694 21.0304 4.86783 20.9263Z" fill="#D30000"/>
<defs>
<linearGradient id="paint0_linear_774_9996" x1="107.688" y1="20.3099" x2="129.179" y2="20.3099" gradientUnits="userSpaceOnUse">
<stop stop-color="#990DFB"/>
<stop offset="1" stop-color="#E50076"/>
</linearGradient>
<linearGradient id="paint1_linear_774_9996" x1="107.688" y1="20.3099" x2="129.179" y2="20.3099" gradientUnits="userSpaceOnUse">
<stop stop-color="#990DFB"/>
<stop offset="1" stop-color="#E50076"/>
</linearGradient>
</defs>
</svg>
