<svg width="130" height="40" viewBox="0 0 130 40" fill="none" xmlns="http://www.w3.org/2000/svg">
<path d="M68.8827 17.2556C70.8124 16.9262 76.0647 17.4382 75.7998 20.195C75.7533 20.6927 73.759 22.8122 73.4046 22.8731C72.7601 22.9877 71.8794 21.1904 70.5618 21.1116C66.287 20.8538 64.0851 31.0577 69.8816 30.8106C71.661 30.7354 73.1754 28.3008 74.16 31.1543C75.2341 34.2584 69.2013 34.9924 67.0388 34.6809C58.9581 33.5209 61.2674 18.5481 68.8827 17.252V17.2556Z" fill="#090C0E"/>
<path d="M100.841 17.5315L99.77 26.1206C100.615 25.6946 102.258 22.7945 102.867 22.5976C103.25 22.4723 106.769 22.3291 106.927 22.5439C106.884 24.0834 103.025 27.0193 102.999 28.0791C102.974 29.1388 106.562 33.6679 105.857 34.3553C104.829 34.187 102.731 34.6883 101.915 34.1835C101.467 33.9078 100.286 31.1939 99.8595 30.5208C98.6816 28.6698 99.1757 32.3324 99.0719 33.1201C98.764 35.4437 95.334 35.1967 95.1013 33.8075L96.9559 18.1151C97.2925 17.0553 99.9276 17.6855 100.844 17.5315H100.841Z" fill="#090C0E"/>
<path d="M45.525 34.3552C45.2923 34.2872 44.9522 33.8074 45.0059 33.4959L47.2185 17.7892C47.7341 16.332 51.6581 16.1852 51.4612 18.0613L49.9968 30.4169C51.1175 30.6281 54.2502 30.0481 55.0307 30.5744C55.8112 31.1007 54.8804 34.3552 54.4758 34.3552C52.6248 34.3552 46.7853 34.7275 45.525 34.3552Z" fill="#090C0E"/>
<path d="M90.7191 22.2651C91.9901 21.9966 94.9976 22.2114 95.1336 23.8118C95.1766 24.3309 93.9951 26.1246 93.6836 26.3216C93.0141 26.7476 92.4735 25.6413 91.5247 25.9027C88.9576 26.608 88.7858 31.1621 91.36 31.1084C92.273 31.0905 93.8196 29.4149 94.3459 32.1145C94.9653 35.283 88.3167 35.9525 86.4442 32.1037C84.7866 28.6917 86.8237 23.085 90.7191 22.2651Z" fill="#090C0E"/>
<path d="M78.9149 34.2699C78.2132 34.9645 76.3228 34.7676 75.4707 34.3022C75.6175 28.7885 76.5878 23.2605 77.2788 17.7755C77.5759 16.7909 80.9163 16.9198 81.1061 17.7361C80.3077 19.9022 79.7313 33.4608 78.9149 34.2699Z" fill="#090C0E"/>
<path d="M60.7447 22.5369C60.7054 23.543 60.8128 24.5705 60.7376 25.5766C60.623 27.134 60.0179 32.5331 59.5847 33.7325C59.0584 35.1825 55.8004 35.1575 55.718 33.8184C56.6417 31.7812 56.4162 24.1839 57.3256 22.8806C57.7982 22.204 59.8926 22.6551 60.7447 22.5369Z" fill="#090C0E"/>
<path d="M85.4454 22.5405L84.3211 34.309C81.7935 35.0644 80.6334 35.358 80.7695 32.3756C80.9055 29.3932 81.8543 26.1638 81.9152 23.1313C82.241 22.0966 84.5252 22.673 85.4454 22.5405Z" fill="#090C0E"/>
<path d="M58.858 16.8768C62.5886 16.1178 62.3523 21.1768 59.4523 21.4632C55.9436 21.8105 56.5344 17.3494 58.858 16.8768Z" fill="#090C0E"/>
<path d="M83.9129 17.2341C86.9061 16.3533 87.0528 21.3156 84.16 21.4731C81.643 21.6128 81.8471 17.8391 83.9129 17.2341Z" fill="#090C0E"/>
<path d="M108.624 31.1866C111.22 30.6818 111.116 34.7812 108.842 34.9924C106.852 35.1786 106.111 31.6735 108.624 31.1866Z" fill="#090C0E"/>
<path d="M119.096 18.9597C119.229 17.592 117.253 14.1621 119.938 14.3877C121.939 14.5559 121.359 18.1541 122.505 19.3142C123.454 19.4538 122.899 18.7771 122.809 18.2938C122.551 16.901 121.57 15.0285 123.912 15.3722C125.935 15.6694 125.308 19.7653 125.903 20.3918C127.131 21.6879 126.289 17.8283 126.282 17.6565C126.15 15.0464 128.864 17.592 129.121 20.2092C129.812 27.1729 124.288 33.9182 117.023 31.2365C113.952 30.1016 113.361 27.5596 111.402 25.4007C110.307 24.1905 106.451 22.0889 108.087 20.4777C109.415 19.1709 111.639 20.7463 113.01 21.1043C113.397 20.7319 110.819 12.2431 110.89 10.5711C110.98 8.46944 112.953 7.35597 114.904 7.9324C117.059 8.57327 117.202 15.7589 117.901 17.8247C118.105 18.4227 118.287 19.0922 119.093 18.9561L119.096 18.9597Z" fill="url(#paint0_linear_103_16586)" fill-opacity="0.64"/>
<path d="M111.088 0.00604244C112.326 -0.212355 113.873 5.55908 112.076 6.04958C110.952 6.24292 110.221 1.96088 110.239 1.1589C110.25 0.711361 110.719 0.0740688 111.091 0.0096235L111.088 0.00604244Z" fill="#090C0E"/>
<path d="M116.597 6.07066C116.128 5.60522 117.682 1.63825 118.105 0.957998C118.452 0.395891 118.527 0.224036 119.279 0.349346C120.933 0.872069 118.072 7.535 116.601 6.07424L116.597 6.07066Z" fill="#090C0E"/>
<path d="M109.064 8.20844C108.194 9.44364 104.159 5.45519 104.421 4.46703C104.933 2.53725 109.97 6.91953 109.064 8.20844Z" fill="#090C0E"/>
<circle cx="20" cy="20" r="20" fill="white"/>
<path fill-rule="evenodd" clip-rule="evenodd" d="M9.83717 16.2392C9.19697 16.2465 8.24251 16.2059 7.91925 15.9207C7.85033 15.8598 7.79811 15.8004 7.75479 15.7468C7.62707 15.5886 7.67539 15.4691 7.51956 15.8077C7.3437 16.1896 7.01989 16.6363 6.43821 16.8077C5.89893 16.9666 7.14167 16.7585 7.53264 17.3498C7.63727 17.5081 7.66222 17.5388 7.71853 17.6813C7.82186 17.9433 7.90942 18.0426 7.95598 17.7528C7.99522 17.5083 8.07146 17.2557 8.21718 17.1035C8.49508 16.813 9.19836 16.4884 9.89329 16.3177C10.0828 16.2712 10.1926 16.2352 9.83717 16.2392Z" fill="#D30000"/>
<path fill-rule="evenodd" clip-rule="evenodd" d="M4.86783 20.4263C4.91895 20.1705 5.26807 19.8992 5.08117 19.665C4.75599 19.2575 3.54177 19.3617 4.65228 18.2651C5.30865 17.6147 6.80719 15.2824 6.67427 14.6668C6.64543 14.5314 6.60689 14.5036 6.54237 14.4261C6.28115 14.1099 5.51654 13.1732 7.16029 11.3209C7.16029 11.3209 8.60023 9.33272 11.8242 8.43307C14.1305 7.78948 17.8828 7.04587 18.1733 5.54857C18.5622 3.54274 16.1622 3.5958 16.1622 3.5958C16.1622 3.5958 18.028 3.47036 18.6996 4.54575C19.6459 6.06135 18.8459 7.64758 16.1273 8.96341C14.3894 9.80464 13.8903 10.7575 17.0526 9.46427C19.1307 8.61453 21.5638 7.08821 25.2007 7.0724C27.9845 7.06029 30.0449 7.79604 31.844 8.63432C30.4321 8.25585 28.8588 7.98527 26.2316 8.38583C24.8426 8.59762 24.0169 8.94243 23.3021 9.37552C22.7179 9.7293 21.7914 10.3526 22.5196 11.3745C23.0823 12.1641 23.8386 12.6566 24.4679 13.0371C30.4453 16.6504 35.7864 14.8789 36.9372 13.3987C36.4452 15.0499 34.4004 17.1915 29.594 17.1288C29.5932 17.1287 29.5929 17.1298 29.5938 17.13C31.4303 17.5726 33.5777 19.08 32.4754 21.7152C32.6461 20.0138 30.9699 19.4339 29.9559 20.3198C28.8281 21.305 29.1788 23.4919 31.7217 23.9474C34.0642 24.367 35.1323 22.3551 35.0084 20.9929L35.0086 20.9928C35.5498 22.5729 34.63 25.3645 31.6026 26.5294C28.2302 27.8271 25.3326 26.9922 21.2136 25.1645C18.9113 24.143 17.4201 23.8342 16.2815 23.8668C15.4205 23.8915 15.5511 24.206 15.9993 24.533L16.6342 24.9964C18.5748 26.4127 20.8699 29.3512 22.8231 32.4691C24.77 35.577 27.0867 37.3129 28.0176 38.0603C28.151 38.1675 28.3339 38.1907 28.4887 38.1179C35.2902 34.9247 40 28.0134 40 20.0019C40 7.5494 28.6215 -2.24539 15.6955 0.449231C7.99728 2.05404 1.95579 8.15971 0.41362 15.8714C-1.48146 25.3479 3.32539 33.9651 10.9479 37.8412C11.2128 37.9759 11.534 37.8356 11.608 37.5477C11.9348 36.2786 12.493 34.0045 12.8717 31.894C13.5923 28.0386 12.2706 25.8399 10.6207 24.8509C8.92976 23.8378 6.70977 23.6567 6.09101 23.5329C5.11482 23.3386 4.95713 22.8845 4.99465 22.3324C5.02451 21.8937 5.04669 21.9859 5.07563 21.6775C5.09347 21.4878 4.99188 21.3296 4.97607 21.1235C4.96424 20.9684 5.05233 20.8607 4.92764 20.7306C4.85637 20.6561 4.84694 20.5304 4.86783 20.4263Z" fill="#D30000"/>
<defs>
<linearGradient id="paint0_linear_103_16586" x1="107.688" y1="19.8098" x2="129.18" y2="19.8098" gradientUnits="userSpaceOnUse">
<stop stop-color="#990DFB"/>
<stop offset="1" stop-color="#E50076"/>
</linearGradient>
</defs>
</svg>
