<svg width="41" height="40" viewBox="0 0 41 40" fill="none" xmlns="http://www.w3.org/2000/svg">
<path d="M32.2865 10.1033C32.6633 10.3588 32.9098 10.826 33.0097 11.2606C33.3949 12.9356 33.3315 14.9504 33.7251 16.6097C33.8178 17 34.2355 17.059 34.3175 16.781C34.4529 16.3206 34.121 15.2767 34.0721 14.7702C34.2187 14.513 34.2906 14.2833 34.6348 14.2912C34.9397 14.2985 35.4254 14.4085 35.6433 14.636C36.17 15.1857 36.1307 16.4149 36.2514 17.1163C36.3132 17.4745 36.6956 17.5756 36.8596 17.3016C37.1016 16.8961 36.5283 15.152 36.7203 15.0178C36.9977 14.823 37.5548 15.0773 37.7884 15.2733C38.4201 15.804 38.3061 16.8551 38.4347 17.575C38.4981 17.931 38.9687 17.9046 39.035 17.68C39.0833 17.5161 39.0557 16.945 39.0456 16.7378C39.0243 16.3093 38.6688 15.7338 39.4151 15.9752C40.8998 16.4565 40.4635 19.8122 40.1283 20.9633C40.0519 21.225 39.6964 22.2402 39.4567 22.3144C39.2169 22.3885 39.0866 22.2239 38.8912 22.1706C37.9248 21.9067 36.4772 21.7663 35.9555 22.8546C35.8207 23.1353 35.8011 23.8378 35.5681 23.9254C35.2036 24.0624 33.6257 24.0489 33.1844 24.0023C32.2107 23.9001 31.3156 23.3908 30.6547 22.7125C29.6916 21.7231 29.0329 20.9206 27.8683 20.0531C27.2759 19.6117 26.0827 19.1743 26.7745 18.2219C27.3545 17.4234 28.5478 17.6143 29.3423 17.9614C29.5715 18.0613 30.2167 18.5903 30.2582 18.1416C30.2689 18.0276 30.1891 17.4139 30.1684 17.2476C30.1133 16.8068 29.973 16.3206 29.9095 15.8781C29.7388 14.6893 29.3895 13.1002 29.3311 11.9614C29.2525 10.4239 30.9264 9.18068 32.287 10.1038L32.2865 10.1033Z" fill="url(#paint0_linear_103_16880)" fill-opacity="0.64"/>
<path d="M6.94704 24.9392C6.92795 24.9297 6.94704 24.8589 6.84372 24.8466C4.08098 24.5175 3.33414 28.811 4.00854 30.7707C4.4544 32.0662 5.90147 32.2712 7.03183 31.7237C7.68939 31.4053 7.97015 30.5579 8.70183 31.2716C9.94113 32.4806 9.17071 33.9282 7.87301 34.6431C4.29717 36.6118 0.38666 33.8137 0.464713 29.8785C0.336122 26.4262 2.05385 22.0771 5.89249 21.5442C7.0981 21.3769 9.76987 21.7537 9.79008 23.3653C9.79626 23.8706 9.11007 25.1622 8.69285 25.4676C8.09145 25.9084 7.85616 25.4261 7.39178 25.1408C7.27554 25.0695 7.08743 25.0083 6.94648 24.9387L6.94704 24.9392Z" fill="#090C0E"/>
<path d="M8.70335 5.8345C8.83644 5.97544 8.89652 6.26632 8.89259 6.45836C8.8589 8.09186 8.62137 9.97075 8.49727 11.6267C8.39788 12.9508 8.24851 14.2749 8.17046 15.6012C8.25469 15.7877 8.45235 15.8354 8.63821 15.8556C9.79778 15.7147 11.0303 15.3637 12.1826 15.2565C12.7969 15.1992 13.1097 15.4373 13.158 16.0639C13.1877 16.4503 13.0681 17.5048 12.9513 17.8771C12.775 18.4375 12.4061 18.5088 11.8777 18.6004C9.97354 18.7149 7.99919 19.1754 6.11076 19.2911C5.16233 19.3495 4.52948 19.3944 4.56542 18.2505C4.5817 17.7188 4.69345 17.105 4.73556 16.5682C4.96748 13.6072 5.19658 10.6513 5.40884 7.69542C5.46387 6.93229 5.22803 5.944 6.18488 5.71938C6.64197 5.61213 8.01604 5.52509 8.44224 5.67446C8.50289 5.6958 8.66124 5.78958 8.70391 5.8345H8.70335Z" fill="#090C0E"/>
<path d="M28.6966 22.2841C28.9156 22.4846 28.8926 22.9754 28.8842 23.2522C28.8454 24.4943 28.5776 25.7055 28.6506 26.96C28.6523 26.9886 28.554 26.9572 28.54 27.0644C28.5152 27.2526 28.5512 27.4755 28.6017 27.658C28.7584 27.7686 29.6069 26.6517 29.7456 26.5001C29.8916 26.3406 30.6946 25.445 30.8052 25.3984C31.132 25.2614 32.665 25.2451 32.9794 25.3855C33.3343 25.5438 33.345 26.0823 33.1176 26.3631L30.799 29.0422C31.5043 30.3247 32.3337 31.5348 33.1237 32.7657C33.2293 33.1138 33.0597 33.5889 32.6902 33.6849C32.2916 33.6984 31.8272 33.7731 31.4391 33.7809C31.1999 33.786 31.0242 33.7321 30.8192 33.7225C30.6581 33.7147 30.5267 33.8489 30.3245 33.7259C29.5249 32.7679 29.0144 31.5966 28.2918 30.5785C28.2429 30.6116 28.2221 30.7223 28.2131 30.7801C28.107 31.4786 28.1295 32.2597 28.0329 32.9583C27.9756 33.371 27.7313 33.8163 27.2776 33.8876C26.975 33.9348 26.0327 33.9393 25.707 33.9196C24.803 33.8635 25.1887 32.7584 25.2308 32.1783C25.3561 30.469 25.5352 28.7737 25.6801 27.0684C25.7873 25.8066 25.7497 24.3202 25.9676 23.0882C26.0524 22.6098 26.2528 22.1814 26.7796 22.1033C27.0345 22.0657 27.6398 22.0297 27.8981 22.0443C28.0975 22.0556 28.5517 22.1527 28.6961 22.2847L28.6966 22.2841Z" fill="#090C0E"/>
<path d="M23.9791 27.9782C23.3918 28.4701 22.9499 27.6817 22.1592 27.9833C20.5004 28.6161 20.7458 32.3722 22.9139 31.4872C23.0964 31.4125 23.2362 31.2109 23.4676 31.1969C23.9022 31.17 24.3857 32.0454 24.4424 32.407C24.5266 32.945 24.3363 33.2544 23.9359 33.5784C22.6545 34.615 20.3578 34.4808 19.1629 33.3639C18.7698 32.9966 18.3071 31.6579 18.2667 31.1144C18.0679 28.4168 19.2993 25.2419 22.3939 25.0734C23.1907 25.0302 25.1089 25.526 24.8826 26.6069C24.8259 26.8765 24.1987 27.7946 23.9797 27.9776L23.9791 27.9782Z" fill="#090C0E"/>
<path d="M10.2552 34.4922C10.0794 34.2991 10.1098 33.5775 10.1272 33.3029C10.1771 32.5089 10.3389 31.6363 10.4068 30.831C10.6325 28.1492 10.7432 25.3988 11.0453 22.754C11.1329 21.9886 11.3659 21.6051 12.1739 21.536C12.4738 21.5102 13.2953 21.4961 13.5671 21.5506C13.9607 21.6303 14.0736 21.9959 14.0601 22.3541C13.9793 24.4644 13.6317 26.7476 13.4402 28.8668C13.3273 30.114 13.2886 31.3791 13.1583 32.6279C13.1038 33.1541 13.1016 34.1037 12.649 34.4209C12.4177 34.5832 11.6478 34.659 11.3328 34.677C11.0346 34.6944 10.4675 34.7253 10.2546 34.4922H10.2552Z" fill="#090C0E"/>
<path d="M15.1472 10.1058C15.2736 9.92276 15.4971 9.79529 15.7172 9.74925C16.0726 9.67457 17.1575 9.59539 17.5135 9.63077C18.5057 9.72903 18.0947 10.9111 18.0447 11.5714C17.8881 13.639 17.7842 15.7402 17.4557 17.7769C17.285 18.1032 17.0811 18.2705 16.71 18.3227C16.4466 18.3598 15.9901 18.3873 15.7161 18.3957C14.6991 18.4277 14.2493 18.5344 14.2825 17.3552C14.3235 15.8969 14.5874 14.2123 14.73 12.749C14.7979 12.0515 14.7626 10.6629 15.1472 10.1058Z" fill="#090C0E"/>
<path d="M14.3617 34.2019C14.2067 34.088 14.1893 33.9465 14.1753 33.7561L14.8688 26.3079C14.9811 26.0412 15.2029 25.7778 15.5016 25.7054C15.815 25.6296 17.1537 25.5757 17.4288 25.6616C17.7612 25.7655 17.7764 26.3293 17.7646 26.6218L17.1188 33.6685C16.9644 34.0475 16.7297 34.2632 16.3175 34.3272C15.9671 34.3816 14.8632 34.4271 14.551 34.3227C14.4634 34.2935 14.4269 34.2508 14.3617 34.2025V34.2019Z" fill="#090C0E"/>
<path d="M37.0352 23.291C37.7293 23.3769 39.1971 23.0804 39.4408 23.925C39.3729 24.5786 39.2134 25.221 39.0736 25.8628C38.8052 27.0943 38.5036 28.6761 38.1178 29.8486C37.9909 30.2344 37.8994 30.5258 37.4446 30.5791C37.1447 30.614 36.0688 30.5297 35.7982 30.4287C35.6173 30.3613 35.4893 30.2405 35.4534 30.0434C35.7021 28.8614 35.8655 27.6552 36.1042 26.4743C36.2496 25.7539 36.3934 24.9099 36.5798 24.2114C36.6809 23.834 36.7797 23.5909 37.0352 23.2916V23.291Z" fill="#090C0E"/>
<path d="M18.0204 5.39099C19.5798 6.7134 17.7935 9.26107 15.872 8.35195C14.9859 7.93305 14.7618 6.86614 15.1144 6.00138C15.5654 4.89516 17.0461 4.56385 18.0209 5.39043L18.0204 5.39099Z" fill="#090C0E"/>
<path d="M35.1356 34.5435C34.2428 33.9657 34.2675 32.5933 35.0317 31.9273C36.4086 30.7279 38.4172 32.1227 37.6524 33.818C37.2172 34.7827 36.0206 35.1168 35.1356 34.544V34.5435Z" fill="#090C0E"/>
<path d="M16.4566 21.3263C17.1591 21.2247 17.8835 21.6576 18.1418 22.3101C18.5663 23.3832 17.7532 24.5866 16.6133 24.6287C14.5053 24.7067 14.3357 21.6329 16.4566 21.3269V21.3263Z" fill="#090C0E"/>
<path d="M34.5928 8.83026C34.2323 9.24074 33.1889 8.72413 33.4568 8.11543C33.9139 7.51964 34.3682 6.51843 34.8881 6.00968C35.4272 5.48184 36.2734 5.98553 35.9842 6.71328C35.8158 7.1378 34.9797 8.23616 34.6652 8.65337C34.6242 8.70728 34.6231 8.796 34.5928 8.83026Z" fill="#090C0E"/>
<path d="M30.8833 4.71126C31.1747 4.70115 31.46 4.93362 31.5386 5.20653C31.5532 5.68271 31.6245 6.2156 31.6346 6.6828C31.6481 7.27802 31.7812 8.41119 30.831 8.21634C30.1465 8.07596 30.3212 7.34428 30.2841 6.85406C30.2381 6.24761 29.9124 4.74551 30.8827 4.71126H30.8833Z" fill="#090C0E"/>
<path d="M28.3994 8.20526C28.6342 8.47536 28.902 8.6062 28.8127 9.03016C28.6864 9.631 28.1282 9.69669 27.6751 9.35023C27.4302 9.16324 26.2819 7.94527 26.1292 7.69539C25.7703 7.10915 26.3364 6.44486 26.958 6.69867C27.1781 6.78852 28.1731 7.94415 28.3994 8.2047V8.20526Z" fill="#090C0E"/>
<defs>
<linearGradient id="paint0_linear_103_16880" x1="26.5649" y1="16.9112" x2="40.4582" y2="16.9112" gradientUnits="userSpaceOnUse">
<stop stop-color="#990DFB"/>
<stop offset="1" stop-color="#E50076"/>
</linearGradient>
</defs>
</svg>
