<svg width="41" height="41" viewBox="0 0 41 41" fill="none" xmlns="http://www.w3.org/2000/svg">
<path d="M32.2865 10.6035C32.6633 10.859 32.9098 11.3262 33.0097 11.7608C33.3949 13.4359 33.3315 15.4507 33.7251 17.11C33.8178 17.5003 34.2355 17.5592 34.3175 17.2813C34.4529 16.8208 34.121 15.7769 34.0721 15.2704C34.2187 15.0132 34.2906 14.7836 34.6348 14.7914C34.9397 14.7987 35.4254 14.9088 35.6433 15.1362C36.17 15.6859 36.1307 16.9151 36.2514 17.6165C36.3132 17.9748 36.6956 18.0758 36.8596 17.8018C37.1016 17.3964 36.5283 15.6523 36.7203 15.518C36.9977 15.3232 37.5548 15.5776 37.7884 15.7735C38.4201 16.3042 38.3061 17.3554 38.4347 18.0753C38.4981 18.4313 38.9687 18.4049 39.035 18.1803C39.0833 18.0163 39.0557 17.4452 39.0456 17.238C39.0243 16.8096 38.6688 16.234 39.4151 16.4755C40.8998 16.9567 40.4635 20.3124 40.1283 21.4636C40.0519 21.7252 39.6964 22.7405 39.4567 22.8146C39.2169 22.8887 39.0866 22.7242 38.8912 22.6708C37.9248 22.4069 36.4772 22.2665 35.9555 23.3548C35.8207 23.6356 35.8011 24.338 35.5681 24.4256C35.2036 24.5627 33.6257 24.5492 33.1844 24.5026C32.2107 24.4004 31.3156 23.8911 30.6547 23.2127C29.6916 22.2233 29.0329 21.4209 27.8683 20.5533C27.2759 20.1119 26.0827 19.6745 26.7745 18.7222C27.3545 17.9237 28.5478 18.1146 29.3423 18.4616C29.5715 18.5616 30.2167 19.0905 30.2582 18.6419C30.2689 18.5279 30.1891 17.9141 30.1684 17.7479C30.1133 17.3071 29.9729 16.8208 29.9095 16.3783C29.7388 15.1896 29.3895 13.6004 29.3311 12.4616C29.2525 10.9242 30.9264 9.68092 32.287 10.6041L32.2865 10.6035Z" fill="url(#paint0_linear_774_402)" fill-opacity="0.64"/>
<path d="M32.2865 10.6035C32.6633 10.859 32.9098 11.3262 33.0097 11.7608C33.3949 13.4359 33.3315 15.4507 33.7251 17.11C33.8178 17.5003 34.2355 17.5592 34.3175 17.2813C34.4529 16.8208 34.121 15.7769 34.0721 15.2704C34.2187 15.0132 34.2906 14.7836 34.6348 14.7914C34.9397 14.7987 35.4254 14.9088 35.6433 15.1362C36.17 15.6859 36.1307 16.9151 36.2514 17.6165C36.3132 17.9748 36.6956 18.0758 36.8596 17.8018C37.1016 17.3964 36.5283 15.6523 36.7203 15.518C36.9977 15.3232 37.5548 15.5776 37.7884 15.7735C38.4201 16.3042 38.3061 17.3554 38.4347 18.0753C38.4981 18.4313 38.9687 18.4049 39.035 18.1803C39.0833 18.0163 39.0557 17.4452 39.0456 17.238C39.0243 16.8096 38.6688 16.234 39.4151 16.4755C40.8998 16.9567 40.4635 20.3124 40.1283 21.4636C40.0519 21.7252 39.6964 22.7405 39.4567 22.8146C39.2169 22.8887 39.0866 22.7242 38.8912 22.6708C37.9248 22.4069 36.4772 22.2665 35.9555 23.3548C35.8207 23.6356 35.8011 24.338 35.5681 24.4256C35.2036 24.5627 33.6257 24.5492 33.1844 24.5026C32.2107 24.4004 31.3156 23.8911 30.6547 23.2127C29.6916 22.2233 29.0329 21.4209 27.8683 20.5533C27.2759 20.1119 26.0827 19.6745 26.7745 18.7222C27.3545 17.9237 28.5478 18.1146 29.3423 18.4616C29.5715 18.5616 30.2167 19.0905 30.2582 18.6419C30.2689 18.5279 30.1891 17.9141 30.1684 17.7479C30.1133 17.3071 29.9729 16.8208 29.9095 16.3783C29.7388 15.1896 29.3895 13.6004 29.3311 12.4616C29.2525 10.9242 30.9264 9.68092 32.287 10.6041L32.2865 10.6035Z" fill="url(#paint1_linear_774_402)"/>
<path d="M6.94704 25.4392C6.92795 25.4297 6.94704 25.3589 6.84372 25.3466C4.08098 25.0175 3.33414 29.311 4.00854 31.2707C4.4544 32.5662 5.90147 32.7712 7.03183 32.2237C7.68939 31.9053 7.97015 31.0579 8.70183 31.7716C9.94113 32.9806 9.17071 34.4282 7.87301 35.1431C4.29717 37.1118 0.38666 34.3137 0.464713 30.3785C0.336122 26.9262 2.05385 22.5771 5.89249 22.0442C7.09809 21.8769 9.76987 22.2537 9.79008 23.8653C9.79626 24.3706 9.11007 25.6622 8.69285 25.9676C8.09145 26.4084 7.85616 25.9261 7.39178 25.6408C7.27554 25.5695 7.08743 25.5083 6.94648 25.4387L6.94704 25.4392Z" fill="white"/>
<path d="M8.70286 6.33401C8.83595 6.47496 8.89603 6.76583 8.8921 6.95787C8.85841 8.59137 8.62088 10.4703 8.49678 12.1262C8.39739 13.4503 8.24802 14.7744 8.16997 16.1007C8.2542 16.2872 8.45186 16.3349 8.63773 16.3551C9.79729 16.2142 11.0299 15.8632 12.1821 15.756C12.7964 15.6987 13.1092 15.9368 13.1575 16.5634C13.1873 16.9498 13.0677 18.0043 12.9509 18.3766C12.7745 18.937 12.4056 19.0084 11.8772 19.0999C9.97305 19.2144 7.9987 19.6749 6.11027 19.7906C5.16184 19.849 4.52899 19.8939 4.56493 18.7501C4.58122 18.2183 4.69296 17.6045 4.73508 17.0677C4.96699 14.1067 5.19609 11.1508 5.40835 8.19493C5.46338 7.43181 5.22754 6.44351 6.18439 6.2189C6.64148 6.11164 8.01555 6.02461 8.44175 6.17397C8.5024 6.19531 8.66075 6.28909 8.70342 6.33401H8.70286Z" fill="white"/>
<path d="M28.6966 22.7841C28.9156 22.9846 28.8926 23.4754 28.8842 23.7522C28.8454 24.9943 28.5776 26.2055 28.6506 27.46C28.6523 27.4886 28.554 27.4572 28.54 27.5644C28.5152 27.7526 28.5512 27.9755 28.6017 28.158C28.7584 28.2686 29.6069 27.1517 29.7456 27.0001C29.8916 26.8406 30.6946 25.945 30.8052 25.8984C31.132 25.7614 32.665 25.7451 32.9794 25.8855C33.3343 26.0438 33.345 26.5823 33.1176 26.8631L30.799 29.5422C31.5043 30.8247 32.3337 32.0348 33.1237 33.2657C33.2293 33.6138 33.0597 34.0889 32.6902 34.1849C32.2916 34.1984 31.8272 34.2731 31.4391 34.2809C31.1999 34.286 31.0242 34.2321 30.8192 34.2225C30.6581 34.2147 30.5267 34.3489 30.3245 34.2259C29.5249 33.2679 29.0144 32.0966 28.2918 31.0785C28.2429 31.1116 28.2221 31.2223 28.2131 31.2801C28.107 31.9786 28.1295 32.7597 28.0329 33.4583C27.9756 33.871 27.7313 34.3163 27.2776 34.3876C26.975 34.4348 26.0327 34.4393 25.707 34.4196C24.803 34.3635 25.1887 33.2584 25.2308 32.6783C25.3561 30.969 25.5352 29.2737 25.6801 27.5684C25.7873 26.3066 25.7497 24.8202 25.9676 23.5882C26.0524 23.1098 26.2528 22.6814 26.7796 22.6033C27.0345 22.5657 27.6398 22.5297 27.8981 22.5443C28.0975 22.5556 28.5517 22.6527 28.6961 22.7847L28.6966 22.7841Z" fill="white"/>
<path d="M23.9791 28.478C23.3918 28.9699 22.9499 28.1815 22.1592 28.483C20.5004 29.1159 20.7458 32.872 22.9139 31.987C23.0964 31.9123 23.2362 31.7107 23.4676 31.6967C23.9022 31.6697 24.3857 32.5451 24.4424 32.9068C24.5266 33.4447 24.3363 33.7541 23.9359 34.0781C22.6545 35.1147 20.3578 34.9805 19.1629 33.8636C18.7698 33.4964 18.3071 32.1577 18.2667 31.6141C18.0679 28.9165 19.2993 25.7416 22.3939 25.5732C23.1907 25.5299 25.1089 26.0257 24.8826 27.1067C24.8259 27.3762 24.1987 28.2943 23.9797 28.4774L23.9791 28.478Z" fill="white"/>
<path d="M10.2549 34.9921C10.0792 34.7989 10.1095 34.0774 10.1269 33.8028C10.1769 33.0088 10.3386 32.1362 10.4066 31.3309C10.6323 28.649 10.7429 25.8987 11.045 23.2538C11.1326 22.4885 11.3657 22.1049 12.1737 22.0359C12.4736 22.01 13.2951 21.996 13.5669 22.0505C13.9605 22.1302 14.0734 22.4958 14.0599 22.854C13.979 24.9643 13.6314 27.2475 13.44 29.3667C13.3271 30.6138 13.2883 31.879 13.1581 33.1278C13.1036 33.654 13.1014 34.6035 12.6488 34.9208C12.4174 35.0831 11.6475 35.1589 11.3325 35.1769C11.0344 35.1943 10.4672 35.2251 10.2544 34.9921H10.2549Z" fill="white"/>
<path d="M15.1472 10.6059C15.2736 10.4229 15.4971 10.2954 15.7172 10.2494C16.0726 10.1747 17.1575 10.0955 17.5135 10.1309C18.5057 10.2292 18.0947 11.4112 18.0447 12.0715C17.8881 14.1391 17.7842 16.2404 17.4557 18.277C17.285 18.6033 17.0811 18.7706 16.71 18.8228C16.4466 18.8599 15.9901 18.8874 15.7161 18.8958C14.6991 18.9279 14.2493 19.0345 14.2825 17.8553C14.3235 16.397 14.5874 14.7124 14.73 13.2491C14.7979 12.5517 14.7626 11.163 15.1472 10.6059Z" fill="white"/>
<path d="M14.3617 34.7022C14.2067 34.5882 14.1893 34.4467 14.1753 34.2563L14.8688 26.8082C14.9811 26.5414 15.2029 26.2781 15.5016 26.2056C15.815 26.1298 17.1537 26.0759 17.4288 26.1618C17.7612 26.2657 17.7764 26.8295 17.7646 27.1221L17.1188 34.1687C16.9644 34.5478 16.7297 34.7634 16.3175 34.8274C15.9671 34.8819 14.8632 34.9274 14.551 34.8229C14.4634 34.7937 14.4269 34.751 14.3617 34.7028V34.7022Z" fill="white"/>
<path d="M37.035 23.7908C37.729 23.8767 39.1969 23.5802 39.4406 24.4247C39.3726 25.0784 39.2131 25.7208 39.0733 26.3626C38.8049 27.594 38.5034 29.1759 38.1176 30.3483C37.9907 30.7341 37.8992 31.0256 37.4443 31.0789C37.1445 31.1137 36.0686 31.0295 35.7979 30.9284C35.6171 30.861 35.4891 30.7403 35.4531 30.5432C35.7019 29.3612 35.8653 28.155 36.1039 26.9741C36.2494 26.2537 36.3931 25.4097 36.5796 24.7111C36.6806 24.3338 36.7795 24.0906 37.035 23.7913V23.7908Z" fill="white"/>
<path d="M18.0204 5.89087C19.5798 7.21328 17.7935 9.76095 15.872 8.85183C14.9859 8.43293 14.7618 7.36602 15.1144 6.50126C15.5654 5.39504 17.0461 5.06373 18.0209 5.89031L18.0204 5.89087Z" fill="white"/>
<path d="M35.1356 35.0436C34.2428 34.4658 34.2675 33.0934 35.0317 32.4274C36.4086 31.228 38.4172 32.6228 37.6524 34.3181C37.2172 35.2828 36.0206 35.6169 35.1356 35.0442V35.0436Z" fill="white"/>
<path d="M16.4566 21.8264C17.1591 21.7248 17.8835 22.1577 18.1418 22.8102C18.5663 23.8833 17.7532 25.0867 16.6133 25.1288C14.5053 25.2068 14.3357 22.133 16.4566 21.827V21.8264Z" fill="white"/>
<path d="M34.5925 9.33001C34.232 9.74049 33.1887 9.22388 33.4565 8.61518C33.9136 8.0194 34.3679 7.01818 34.8879 6.50944C35.427 5.9816 36.2732 6.48529 35.984 7.21304C35.8155 7.63755 34.9794 8.73591 34.665 9.15313C34.624 9.20704 34.6228 9.29576 34.5925 9.33001Z" fill="white"/>
<path d="M30.8838 5.21101C31.1752 5.2009 31.4604 5.43338 31.5391 5.70628C31.5537 6.18246 31.625 6.71536 31.6351 7.18255C31.6486 7.77778 31.7816 8.91095 30.8315 8.7161C30.147 8.57571 30.3217 7.84404 30.2846 7.35382C30.2386 6.74736 29.9129 5.24526 30.8832 5.21101H30.8838Z" fill="white"/>
<path d="M28.3992 8.70551C28.6339 8.97561 28.9018 9.10644 28.8125 9.5304C28.6861 10.1312 28.128 10.1969 27.6748 9.85047C27.43 9.66348 26.2817 8.44552 26.1289 8.19564C25.7701 7.6094 26.3361 6.9451 26.9577 7.19892C27.1779 7.28876 28.1729 8.4444 28.3992 8.70495V8.70551Z" fill="white"/>
<defs>
<linearGradient id="paint0_linear_774_402" x1="26.5649" y1="17.4115" x2="40.4582" y2="17.4115" gradientUnits="userSpaceOnUse">
<stop stop-color="#990DFB"/>
<stop offset="1" stop-color="#E50076"/>
</linearGradient>
<linearGradient id="paint1_linear_774_402" x1="26.5649" y1="17.4115" x2="40.4582" y2="17.4115" gradientUnits="userSpaceOnUse">
<stop stop-color="#990DFB"/>
<stop offset="1" stop-color="#E50076"/>
</linearGradient>
</defs>
</svg>
